# xmcd
#
# Track frame offsets: 
#        150
#        19557
#        47237
#        75775
#        86210
#        104327
#        118790
#        131397
#        150312
#        166922
#        193112
#
# Disc length: 2893 seconds
#
# Revision: 1
# Processed by: cddbd v1.5.2PL0 Copyright (c) Steve Scherf et al.
# Submitted via: ExactAudioCopy v1.0b3
#
DISCID=7c0b4b0b
DTITLE=Clarence 'Gatemouth' Brown - Charly Blues Legends - Live - Vol.
DTITLE=4
DYEAR=1994
DGENRE=Blues
TTITLE0=Pressure Cooker
TTITLE1=Frosty
TTITLE2=Gate's Tune
TTITLE3=When My Blue Moon Turns To Gold Again
TTITLE4=Louisianne
TTITLE5=Up Jumped The Devil
TTITLE6=The Dark End Of The Hallway
TTITLE7=Chicken Shift
TTITLE8=Take The "A" Train
TTITLE9=Honeyboy
TTITLE10=Boogie Woogie On St. Louis Blues
EXTD=
EXTT0=
EXTT1=
EXTT2=
EXTT3=
EXTT4=
EXTT5=
EXTT6=
EXTT7=
EXTT8=
EXTT9=
EXTT10=
PLAYORDER=
